<?xml version="1.0" encoding="utf-8"?>
<!-- Generator: Adobe Illustrator 28.0.0, SVG Export Plug-In . SVG Version: 6.00 Build 0)  -->
<svg version="1.1" id="Layer_1" xmlns="http://www.w3.org/2000/svg" xmlns:xlink="http://www.w3.org/1999/xlink" x="0px" y="0px"
	 viewBox="0 0 516.7 124.2" style="enable-background:new 0 0 516.7 124.2;" xml:space="preserve">
<style type="text/css">
	.st0{fill:#FFFFFF;}
</style>
<g>
	<path class="st0" d="M63.3,66c0,3.3-0.7,6.4-2.1,9.3c-1.4,2.9-3.4,5.5-5.9,7.8s-5.6,4.1-9,5.4c-3.5,1.3-7.3,2-11.5,2
		c-3.8,0-7.2-0.2-10.2-0.7c-3-0.4-5.8-1.1-8.5-2.1c-2.7-0.9-5.2-2.2-7.6-3.6c-2.4-1.5-5-3.3-7.6-5.4l12-12.1c3.5,2.9,6.9,5,10.2,6.1
		c3.3,1.2,7,1.8,10.9,1.8c1.6,0,3.1-0.2,4.5-0.7s2.6-1.1,3.7-1.9c1.1-0.8,1.9-1.7,2.5-2.8c0.6-1.1,0.9-2.3,0.9-3.6
		c0-1.4-0.3-2.6-0.8-3.7c-0.5-1.1-1.4-2.1-2.7-3.2c-1.3-1-3.1-2.1-5.5-3.1c-2.3-1-5.3-2.2-8.9-3.5c-3.2-1.2-6.3-2.5-9.2-4
		s-5.5-3.3-7.7-5.4c-2.2-2.1-4-4.6-5.3-7.4c-1.4-2.8-2-6.2-2-10c0-3.7,0.7-7.1,2.2-10.2s3.5-5.8,6.1-8s5.6-3.9,9.1-5.2
		c3.3-1.2,7-1.8,11-1.8c6.7,0,12.3,0.9,16.9,2.6s8.6,4.3,12.2,7.6L49.2,22.1c-2.2-2.1-4.6-3.7-7.3-4.8s-5.8-1.7-9.5-1.7
		c-1.7,0-3.2,0.2-4.6,0.7s-2.6,1.2-3.7,2c-1,0.8-1.8,1.8-2.5,2.9c-0.6,1.1-0.9,2.3-0.9,3.5c0,1.4,0.3,2.6,0.9,3.8
		c0.6,1.1,1.6,2.2,2.9,3.3c1.4,1.1,3.2,2.1,5.5,3.2s5.1,2.2,8.6,3.4c4.4,1.5,8.1,3.2,11.2,5c3.1,1.8,5.7,3.8,7.6,6
		c2,2.2,3.4,4.6,4.4,7.4C62.8,59.6,63.3,62.6,63.3,66"/>
	<path class="st0" d="M154.5,90.7h-19.3l-8.4-18.1h-44l-8.5,18.1H55.1L98,0h13.7L154.5,90.7z M119.9,57.9l-15.1-32.6L89.6,57.9
		H119.9z"/>
	<polygon class="st0" points="245.9,90.7 228.6,90.7 228.6,30.2 200.1,78.3 172.6,29.7 172.6,90.7 155.4,90.7 155.4,0 175.3,0 
		200.4,45 226.7,0 245.9,0 	"/>
	<path class="st0" d="M292.2,30.4c0,4.3-0.8,8.3-2.4,12.1c-1.6,3.7-3.8,7-6.6,9.7c-2.8,2.8-6.1,4.9-9.9,6.5c-3.8,1.5-7.8,2.3-12,2.3
		h-15v29.6h-17.6V0h32.6c4.2,0,8.3,0.8,12,2.3c3.8,1.5,7.1,3.7,9.9,6.4s5,5.9,6.6,9.6C291.3,22.1,292.2,26.1,292.2,30.4 M274.6,30.1
		c0-2.3-0.4-4.5-1.3-6.6c-0.9-2-2.1-3.8-3.6-5.3s-3.3-2.7-5.3-3.6c-2-0.9-4.2-1.4-6.6-1.4h-11.7v34.2h11.7c2.3,0,4.5-0.5,6.6-1.4
		c2-1,3.8-2.2,5.3-3.8s2.7-3.4,3.6-5.5C274.2,34.7,274.6,32.5,274.6,30.1"/>
	<path class="st0" d="M368.8,90.7h-19.3l-8.4-18.1h-44l-8.5,18.1h-19.3l43-90.7H326L368.8,90.7z M334.3,57.9l-15.1-32.6l-15.3,32.6
		H334.3z"/>
	<path class="st0" d="M438.3,90.7H419l-6.5-20.6c-0.7-2.3-1.5-4.4-2.5-6.2c-1-1.9-2.2-3.5-3.7-4.9c-1.4-1.4-3.1-2.4-5.1-3.2
		s-4.3-1.1-7.1-1.1h-6.6v36h-17.3V0.1L405.9,0c3.8,0,7.4,0.7,10.7,2c3.3,1.3,6.2,3.2,8.6,5.5s4.3,5.1,5.7,8.3c1.4,3.2,2,6.6,2,10.3
		c0,2.6-0.4,5.2-1.2,7.7c-0.8,2.5-2,4.8-3.5,6.9c-1.5,2.1-3.3,4-5.3,5.6c-2.1,1.6-4.3,2.9-6.8,3.7c2.9,1.1,5.2,2.6,7,4.6
		s3.2,4.4,4.3,7.2c0.5,1.3,1,2.6,1.5,3.9c0.5,1.3,0.9,2.6,1.4,4s1,2.9,1.6,4.6c0.6,1.6,1.2,3.4,1.9,5.4c0.8,2.5,1.6,4.6,2.3,6.4
		C436.7,87.7,437.4,89.3,438.3,90.7 M415.4,27.3c0-2.1-0.4-4-1.2-5.8c-0.8-1.7-1.9-3.3-3.2-4.5c-1.4-1.3-3-2.3-4.8-3
		c-1.9-0.7-3.8-1.1-5.9-1.1h-12.7v28.2h12.7c2.1,0,4.1-0.3,5.9-1s3.5-1.6,4.8-2.8s2.4-2.7,3.2-4.3C415,31.3,415.4,29.4,415.4,27.3"
		/>
	<polygon class="st0" points="516.7,90.7 493.8,90.7 457.5,50.6 457.5,90.7 440,90.7 440,0 457.5,0 457.5,40.5 494.6,0 515.5,0 
		474.6,44.5 	"/>
	<path class="st0" d="M13.5,117.6c0.4,1.1,1.1,1.4,1.5,1.4v0.4c-0.6,0-1.5-0.1-2.4-0.1c-1.2,0-2.2,0-2.9,0.1V119
		c1.1,0,1.6-0.2,1.6-0.8c0-0.3-0.1-0.6-0.3-1.1l-1.4-3.6H4.4l-0.9,2.3c-0.3,0.8-0.4,1.4-0.4,1.8c0,1,0.7,1.3,1.9,1.3v0.4
		c-0.8,0-1.8-0.1-2.6-0.1s-1.2,0-1.7,0.1V119c0.6-0.1,1.2-0.6,1.8-1.9l5.2-13.5h0.4L13.5,117.6z M7.1,106.4L4.5,113h5L7.1,106.4z"/>
	<path class="st0" d="M37.6,106.5c0,0.7,0,1.3,0.1,1.8h-0.5c-0.3-3.1-0.7-4.2-3.4-4.2h-1.4c-1.5,0-1.8,0.2-1.8,1.8v5.5h1.6
		c1.9,0,1.9-1.9,2.1-2.9h0.5c-0.1,0.9-0.1,1.6-0.1,2.1c0,0.4,0,0.7,0,1c0,0.7,0,1.5,0.1,3.2h-0.5c-0.2-1.4-0.2-2.9-2.1-2.9h-1.6v5.1
		c0,1.6,0.4,1.8,2.2,1.9v0.4c-0.8,0-2.1-0.1-3.3-0.1c-1.2,0-2.2,0-2.8,0.1V119c1.5-0.1,1.8-0.3,1.8-1.9v-11c0-1.6-0.3-1.8-1.8-1.9
		v-0.4c2.2,0.1,5.1,0.1,6.4,0.1c1.4,0,3.3,0,4.6-0.1C37.7,104.8,37.6,106,37.6,106.5"/>
	<path class="st0" d="M51.7,113.7c0,4.3-2.2,6-5.1,6c-2.8,0-5-1.8-5-6c0-4.3,2.2-6.1,5-6.1C49.4,107.7,51.7,109.4,51.7,113.7
		 M43.7,113.7c0,4,1.2,5.6,2.9,5.6s2.9-1.6,2.9-5.6s-1.2-5.6-2.9-5.6S43.7,109.7,43.7,113.7"/>
	<path class="st0" d="M66.1,117c0,1.3,0.4,2,1.7,2v0.5c-0.5,0-0.9-0.1-1.4-0.1c-0.9,0-1.7,0.1-2.3,0.3v-2.6
		c-0.8,1.9-2.2,2.7-3.7,2.7c-1,0-1.8-0.3-2.3-0.9c-0.6-0.6-0.7-1.5-0.7-2.9v-5.6c0-1.3-0.4-2-1.7-2V108c0.5,0,0.9,0.1,1.4,0.1
		c0.9,0,1.7-0.1,2.3-0.3v8.8c0,1.4,0.1,2.5,1.7,2.5c1.7,0,3-1.8,3-4v-4.6c0-1.3-0.4-2-1.7-2V108c0.5,0,0.9,0.1,1.4,0.1
		c0.9,0,1.7-0.1,2.3-0.3C66.1,107.8,66.1,117,66.1,117z"/>
	<path class="st0" d="M81.4,108.5c0.6,0.6,0.8,1.4,0.8,2.9v5.9c0,1.2,0.5,1.6,1.7,1.6v0.5c-0.5,0-1.7-0.1-2.7-0.1s-2,0.1-2.5,0.1
		V119c1.1,0,1.5-0.4,1.5-1.6V111c0-1.4-0.2-2.6-1.8-2.6c-1.9,0-3.1,1.8-3.1,4.1v4.9c0,1.2,0.4,1.6,1.5,1.6v0.5
		c-0.5,0-1.5-0.1-2.5-0.1s-2.1,0.1-2.7,0.1V119c1.2,0,1.7-0.4,1.7-1.6v-7c0-1.3-0.4-2-1.7-2V108c0.5,0,0.9,0.1,1.4,0.1
		c0.9,0,1.7-0.1,2.3-0.3v2.6c0.8-2,2.3-2.7,3.8-2.7C80.2,107.7,80.9,108,81.4,108.5"/>
	<path class="st0" d="M97.6,117c0,1.3,0.4,2,1.7,2v0.5c-0.5,0-0.9-0.1-1.4-0.1c-0.9,0-1.7,0.1-2.3,0.3v-2c-0.6,1.3-1.6,2-3.2,2
		c-2.8,0-4.6-2-4.5-6c0-4.1,2.3-6.1,5-6.1c1.1,0,2.1,0.4,2.7,1.3v-4.3c0-1.3-0.4-2-1.7-2v-0.5c0.5,0.1,0.9,0.1,1.4,0.1
		c0.9,0,1.7-0.1,2.3-0.3V117z M95.6,116.5v-6.6c-0.4-1.2-1.3-1.7-2.5-1.7c-1.8,0-3.1,1.8-3.1,5.5c0,3.6,1,5.3,3,5.3
		C94.2,119.1,95.3,118.2,95.6,116.5"/>
	<path class="st0" d="M110.7,108.5c0.7,0.7,0.9,1.5,0.9,3.1v6.2c0,0.7,0.2,1,0.7,1c0.4,0,0.7-0.2,1-0.5l0.3,0.4
		c-0.6,0.5-1.1,0.8-2,0.8c-1.6,0-1.9-0.9-1.9-2c-1,1.6-2.4,2-3.4,2c-1.5,0-2.8-0.8-2.8-2.5c0-1.8,1.4-2.5,3.6-3.5
		c1.5-0.6,2.7-1,2.7-1.9v-1.4c0-1.9-0.9-2.2-2.1-2.2c-0.8,0-1.7,0.2-2.2,0.8c0.5,0.1,1,0.6,1,1.4s-0.5,1.2-1.3,1.2s-1.2-0.6-1.2-1.4
		c0-0.6,0.4-1.2,1-1.6s1.7-0.8,3.1-0.8C109.2,107.7,110.2,108,110.7,108.5 M109.6,112.6c-0.2,0.4-0.7,0.6-2.1,1.3
		c-1,0.5-2.2,1.1-2.2,2.8c0,1.3,0.8,2,1.8,2c0.9,0,1.8-0.5,2.5-1.7C109.6,117,109.6,112.6,109.6,112.6z"/>
	<path class="st0" d="M123.7,108v0.4h-3.3v8.6c0,1.4,0.5,1.9,1.4,1.9s1.5-0.6,2-2.4l0.4,0.1c-0.3,1.7-1.1,3.1-2.9,3.1
		c-1,0-1.6-0.3-2.1-0.7c-0.6-0.7-0.9-1.5-0.9-3.1v-7.5h-2.1V108h2.1v-3.4c0.7,0,1.4-0.1,2-0.3v3.7C120.3,108,123.7,108,123.7,108z"
		/>
	<path class="st0" d="M131,117.4c0,1.2,0.5,1.6,1.7,1.6v0.5c-0.5,0-1.7-0.1-2.7-0.1s-2.2,0.1-2.7,0.1V119c1.2,0,1.7-0.4,1.7-1.6v-7
		c0-1.3-0.4-2-1.7-2V108c0.5,0,0.9,0.1,1.4,0.1c0.9,0,1.7-0.1,2.3-0.3V117.4z M131.3,103.8c0,0.8-0.7,1.4-1.4,1.4
		c-0.8,0-1.4-0.6-1.4-1.4s0.6-1.4,1.4-1.4S131.3,103.1,131.3,103.8"/>
	<path class="st0" d="M147,113.7c0,4.3-2.2,6-5,6s-5-1.8-5-6c0-4.3,2.2-6.1,5-6.1C144.8,107.7,147,109.4,147,113.7 M139.1,113.7
		c0,4,1.2,5.6,2.9,5.6s2.9-1.6,2.9-5.6s-1.2-5.6-2.9-5.6S139.1,109.7,139.1,113.7"/>
	<path class="st0" d="M161.2,108.5c0.6,0.6,0.8,1.4,0.8,2.9v5.9c0,1.2,0.5,1.6,1.7,1.6v0.5c-0.5,0-1.7-0.1-2.7-0.1s-2,0.1-2.5,0.1
		V119c1.1,0,1.5-0.4,1.5-1.6V111c0-1.4-0.2-2.6-1.8-2.6c-1.9,0-3.1,1.8-3.1,4.1v4.9c0,1.2,0.4,1.6,1.5,1.6v0.5
		c-0.5,0-1.5-0.1-2.5-0.1s-2.2,0.1-2.7,0.1V119c1.2,0,1.7-0.4,1.7-1.6v-7c0-1.3-0.4-2-1.7-2V108c0.5,0,0.9,0.1,1.4,0.1
		c0.9,0,1.7-0.1,2.3-0.3v2.6c0.8-2,2.3-2.7,3.8-2.7C160,107.7,160.7,108,161.2,108.5"/>
	<path class="st0" d="M186.3,113.7c0,4-2.3,6-4.9,6c-1.1,0-2.2-0.4-2.9-1.3l-1.6,1.4l-0.4-0.2c0.1-0.4,0.1-0.8,0.1-1.3v-13.7
		c0-1.3-0.4-2-1.7-2v-0.5c0.5,0,0.9,0.1,1.4,0.1c0.9,0,1.7-0.1,2.3-0.3v8c0.7-1.5,2-2.4,3.5-2.4
		C184.5,107.7,186.3,109.7,186.3,113.7 M184.2,113.7c0-3.6-0.9-5.4-2.7-5.4c-1.2,0-2.4,0.9-2.8,2.8v7c0.7,0.7,1.6,1.1,2.6,1.1
		C183.2,119.2,184.2,117.5,184.2,113.7"/>
	<path class="st0" d="M200.8,108v0.4c-0.6,0.1-1,0.4-1.4,1.6l-3.7,9.6l-0.8,1.9c-0.3,0.8-0.6,1.3-1,1.6c-0.5,0.4-1.2,0.6-1.7,0.6
		c-0.8,0-1.5-0.5-1.5-1.3c0-0.7,0.4-1.2,1.2-1.2c0.6,0,1.1,0.3,1.1,1.1c0,0.5-0.3,0.8-0.6,1h0.1c0.8,0,1.4-0.5,1.9-1.7l0.8-2l-4-9.7
		c-0.6-1.2-1.2-1.3-1.5-1.3V108c0.6,0.1,1.3,0.1,2.2,0.1s2-0.1,2.9-0.1v0.5c-0.8,0-1.6,0-1.6,0.8c0,0.3,0.1,0.6,0.3,1.1l2.7,6.6
		l2.4-6.4c0.2-0.4,0.2-0.7,0.2-1c0-0.7-0.5-1-1.7-1.1V108c0.8,0,1.2,0.1,1.9,0.1C199.8,108,200.4,108,200.8,108"/>
	<path class="st0" d="M223.2,117.6c0.4,1.1,1.1,1.4,1.5,1.4v0.4c-0.6,0-1.5-0.1-2.4-0.1c-1.1,0-2.2,0-2.9,0.1V119
		c1.1,0,1.6-0.2,1.6-0.8c0-0.3-0.1-0.6-0.3-1.1l-1.4-3.6h-5.4l-0.9,2.3c-0.3,0.8-0.5,1.4-0.5,1.8c0,1,0.7,1.3,1.9,1.3v0.4
		c-0.8,0-1.8-0.1-2.6-0.1c-0.7,0-1.2,0-1.7,0.1V119c0.6-0.1,1.2-0.6,1.7-1.9l5.2-13.5h0.4L223.2,117.6z M216.8,106.4l-2.6,6.6h5
		L216.8,106.4z"/>
	<path class="st0" d="M237.7,108.5c0.6,0.6,0.8,1.4,0.8,2.9v5.9c0,1.2,0.5,1.6,1.7,1.6v0.5c-0.5,0-1.7-0.1-2.7-0.1s-2,0.1-2.5,0.1
		V119c1.1,0,1.5-0.4,1.5-1.6V111c0-1.4-0.2-2.6-1.8-2.6c-1.9,0-3.1,1.8-3.1,4.1v4.9c0,1.2,0.4,1.6,1.5,1.6v0.5
		c-0.5,0-1.5-0.1-2.5-0.1s-2.2,0.1-2.7,0.1V119c1.2,0,1.7-0.4,1.7-1.6v-7c0-1.3-0.4-2-1.7-2V108c0.5,0,0.9,0.1,1.4,0.1
		c0.9,0,1.7-0.1,2.3-0.3v2.6c0.8-2,2.3-2.7,3.8-2.7C236.5,107.7,237.2,108,237.7,108.5"/>
	<path class="st0" d="M253.9,117c0,1.3,0.4,2,1.7,2v0.5c-0.5,0-0.9-0.1-1.4-0.1c-0.9,0-1.7,0.1-2.3,0.3v-2.6
		c-0.8,1.9-2.2,2.7-3.6,2.7c-1,0-1.8-0.3-2.3-0.9c-0.6-0.6-0.7-1.5-0.7-2.9v-5.6c0-1.3-0.4-2-1.7-2V108c0.5,0,0.9,0.1,1.4,0.1
		c0.9,0,1.7-0.1,2.3-0.3v8.8c0,1.4,0.1,2.5,1.7,2.5c1.7,0,3-1.8,3-4v-4.6c0-1.3-0.4-2-1.7-2V108c0.5,0,0.9,0.1,1.4,0.1
		c0.9,0,1.7-0.1,2.3-0.3L253.9,117L253.9,117z"/>
	<path class="st0" d="M270.6,113.2c0,3.2-1.5,6.6-5.1,6.6c-1.2,0-2.1-0.5-2.6-1.2v2.8c0,1.3,0.8,1.6,2.1,1.6v0.5
		c-0.6,0-1.9-0.1-3.2-0.1c-0.9,0-1.9,0.1-2.4,0.1V123c1.1,0,1.5-0.3,1.5-1.4v-11.2c0-1.3-0.4-2-1.7-2V108c0.5,0,0.9,0.1,1.4,0.1
		c0.9,0,1.7-0.1,2.3-0.3v2.3c0.7-1.5,2-2.4,3.6-2.4C268.8,107.7,270.6,109.6,270.6,113.2 M268.5,113.5c0-3.5-0.9-5.2-2.6-5.2
		c-1.3,0-2.5,0.9-2.9,2.8v6.7c0.4,0.8,1.2,1.4,2.3,1.4C267.8,119.2,268.5,116.6,268.5,113.5"/>
	<path class="st0" d="M282.6,108.5c0.7,0.7,0.9,1.5,0.9,3.1v6.2c0,0.7,0.2,1,0.7,1c0.4,0,0.7-0.2,1-0.5l0.2,0.4
		c-0.6,0.5-1.1,0.8-2,0.8c-1.6,0-1.9-0.9-1.9-2c-1,1.6-2.4,2-3.4,2c-1.5,0-2.8-0.8-2.8-2.5c0-1.8,1.4-2.5,3.6-3.5
		c1.5-0.6,2.7-1,2.7-1.9v-1.4c0-1.9-0.9-2.2-2.1-2.2c-0.8,0-1.7,0.2-2.2,0.8c0.5,0.1,1,0.6,1,1.4s-0.5,1.2-1.3,1.2s-1.2-0.6-1.2-1.4
		c0-0.6,0.4-1.2,1-1.6s1.7-0.8,3.1-0.8C281.1,107.7,282.1,108,282.6,108.5 M281.4,112.6c-0.2,0.4-0.7,0.6-2.1,1.3
		c-1,0.5-2.2,1.1-2.2,2.8c0,1.3,0.8,2,1.8,2c0.9,0,1.8-0.5,2.5-1.7L281.4,112.6L281.4,112.6z"/>
	<path class="st0" d="M305.8,117.4c0,1.2,0.5,1.6,1.7,1.6v0.5c-0.5,0-1.7-0.1-2.7-0.1s-2,0.1-2.5,0.1V119c1.1,0,1.5-0.4,1.5-1.6V111
		c0-1.4-0.1-2.6-1.7-2.6c-1.7,0-3,1.8-3,4v5c0,1.2,0.5,1.6,1.7,1.6v0.5c-0.5,0-1.7-0.1-2.7-0.1s-2,0.1-2.5,0.1V119
		c1.1,0,1.5-0.4,1.5-1.6V111c0-1.4-0.1-2.6-1.7-2.6c-1.7,0-3,1.8-3,4v4.9c0,1.2,0.4,1.6,1.5,1.6v0.5c-0.5,0-1.5-0.1-2.5-0.1
		s-2.2,0.1-2.7,0.1V119c1.2,0,1.7-0.4,1.7-1.6v-7c0-1.3-0.4-2-1.7-2V108c0.5,0,0.9,0.1,1.4,0.1c0.9,0,1.7-0.1,2.3-0.3v2.6
		c0.8-1.9,2.2-2.7,3.6-2.7c1,0,1.8,0.3,2.3,0.8c0.4,0.4,0.6,1,0.7,1.8c0.8-2,2.3-2.6,3.7-2.6c1,0,1.8,0.3,2.3,0.8
		c0.6,0.6,0.7,1.5,0.7,2.9v6H305.8z"/>
	<path class="st0" d="M318.7,108.5c0.7,0.7,0.9,1.5,0.9,3.1v6.2c0,0.7,0.2,1,0.7,1c0.4,0,0.7-0.2,1-0.5l0.2,0.4
		c-0.6,0.5-1.1,0.8-2,0.8c-1.6,0-1.9-0.9-1.9-2c-1,1.6-2.4,2-3.4,2c-1.5,0-2.8-0.8-2.8-2.5c0-1.8,1.4-2.5,3.6-3.5
		c1.5-0.6,2.7-1,2.7-1.9v-1.4c0-1.9-0.9-2.2-2.1-2.2c-0.8,0-1.7,0.2-2.2,0.8c0.6,0.1,1,0.6,1,1.4s-0.5,1.2-1.3,1.2s-1.2-0.6-1.2-1.4
		c0-0.6,0.4-1.2,1-1.6s1.7-0.8,3.1-0.8C317.3,107.7,318.2,108,318.7,108.5 M317.6,112.6c-0.2,0.4-0.7,0.6-2.1,1.3
		c-1,0.5-2.2,1.1-2.2,2.8c0,1.3,0.8,2,1.8,2c0.9,0,1.8-0.5,2.5-1.7L317.6,112.6L317.6,112.6z"/>
	<path class="st0" d="M350.3,106.4c0,1.5-0.9,2.5-2.1,3.1c-0.7,0.3-2,0.8-3.3,1.2c1.7,0.7,2.4,2.2,2.4,3.8c0,2.7-2.5,5.3-6.8,5.3
		c-3.9,0-7.2-2.1-7.2-5.5c0-3.2,3-4.4,4.1-4.7c-1.5-0.6-2.2-1.8-2.2-2.9c0-1.4,1.3-2.8,3.7-2.8c1.1,0,1.8,0.3,2.3,0.7
		c0.6,0.5,0.8,1.1,0.8,1.5c0,0.7-0.6,1.2-1.3,1.2c-0.6,0-1.2-0.4-1.2-1.1c0-0.6,0.5-1.2,1.2-1.2c-0.1-0.4-0.8-0.7-1.7-0.7
		c-1.5,0-2.6,0.9-2.6,2.7c0,0.8,0.2,1.7,1.1,2.5c0.5-0.1,1.1-0.1,1.4-0.1c0.5,0,0.9,0.2,0.9,0.5s-0.2,0.4-0.6,0.4
		c-0.6,0-1.3-0.3-1.6-0.5c-1.7,0.5-2.9,1.6-2.9,3.6c0,3.1,2.6,4.8,6,4.8c3.1,0,5.8-1.5,5.8-4.1c0-0.8-0.3-2.4-2.2-3.2
		c-1,0.3-2,0.6-2.6,0.8c-1.1,0.4-2,1-2,1.9c0,1.2,1.2,1.8,2,1.8c0.4,0,1.2-0.2,1.3-0.5c-0.5-0.1-1.1-0.4-1.1-1.1s0.5-1.2,1.2-1.2
		s1.2,0.5,1.2,1.2c0,1.3-1.5,1.9-2.6,1.9c-1.3,0-2.8-0.8-2.8-2.6c0-1.5,1.1-2.6,3.1-3.2c1.3-0.5,3.8-1,5.4-1.8
		c1.5-0.7,1.9-1.4,1.9-2.1c0-1.3-1.2-2.3-2.6-2.3c-0.4,0-0.6,0.1-0.7,0.2c0.4,0.2,0.6,0.6,0.6,1c0,0.6-0.6,1.1-1.3,1.1
		c-0.6,0-1.2-0.4-1.2-1.1c0-1.2,1.4-1.5,2.4-1.5C348.9,103.4,350.3,104.5,350.3,106.4"/>
	<path class="st0" d="M375,103.7v0.4c-0.6,0.1-1.2,0.6-1.8,1.9l-5.2,13.5h-0.2h-0.2l-5.4-14c-0.4-1.1-1.1-1.4-1.5-1.4v-0.4
		c0.6,0,1.5,0.1,2.4,0.1c1.2,0,2.2,0,2.9-0.1v0.4c-1.1,0-1.6,0.2-1.6,0.8c0,0.3,0.1,0.6,0.3,1l4,10.7l3.6-9.4
		c0.3-0.8,0.4-1.4,0.4-1.8c0-1-0.7-1.3-1.9-1.3v-0.4c0.9,0,1.8,0.1,2.6,0.1C374.1,103.7,374.6,103.7,375,103.7"/>
	<path class="st0" d="M381.2,117.4c0,1.2,0.5,1.6,1.7,1.6v0.5c-0.5,0-1.7-0.1-2.7-0.1s-2.2,0.1-2.7,0.1V119c1.2,0,1.7-0.4,1.7-1.6
		v-7c0-1.3-0.4-2-1.7-2V108c0.5,0,0.9,0.1,1.4,0.1c0.9,0,1.7-0.1,2.3-0.3L381.2,117.4L381.2,117.4z M381.5,103.8
		c0,0.8-0.6,1.4-1.4,1.4s-1.4-0.6-1.4-1.4s0.6-1.4,1.4-1.4C380.8,102.4,381.5,103.1,381.5,103.8"/>
	<path class="st0" d="M396.5,108.5c0.5,0.6,0.8,1.4,0.8,2.9v5.9c0,1.2,0.5,1.6,1.7,1.6v0.5c-0.5,0-1.7-0.1-2.7-0.1s-2,0.1-2.5,0.1
		V119c1.1,0,1.5-0.4,1.5-1.6V111c0-1.4-0.2-2.6-1.8-2.6c-1.9,0-3.1,1.8-3.1,4.1v4.9c0,1.2,0.4,1.6,1.5,1.6v0.5
		c-0.5,0-1.5-0.1-2.5-0.1s-2.2,0.1-2.7,0.1V119c1.2,0,1.7-0.4,1.7-1.6v-7c0-1.3-0.4-2-1.7-2V108c0.5,0,0.9,0.1,1.4,0.1
		c0.9,0,1.7-0.1,2.3-0.3v2.6c0.8-2,2.3-2.7,3.8-2.7C395.3,107.7,396,108,396.5,108.5"/>
	<path class="st0" d="M412.3,116.8c-0.5,1.5-2,3-4.2,3c-3.2,0-5.1-2.4-5.1-5.8c0-3.9,2-6.3,5-6.3c2.6,0,4.2,1.5,4.2,4.9h-6.9
		c-0.1,0.4-0.1,0.9-0.1,1.4c0,3,1.7,4.8,3.4,4.8c1.3,0,2.5-0.6,3.3-2.2L412.3,116.8z M405.2,112.1h4.8c0.1-2.2-0.6-4-2.1-4
		C406.6,108.1,405.5,109.3,405.2,112.1"/>
	<path class="st0" d="M426.2,116.8c-0.5,1.5-2,3-4.1,3c-3.2,0-5.1-2.4-5.1-5.8c0-3.9,2-6.3,5-6.3c2.6,0,4.2,1.5,4.2,4.9h-6.9
		c-0.1,0.4-0.1,0.9-0.1,1.4c0,3,1.7,4.8,3.4,4.8c1.3,0,2.5-0.6,3.3-2.2L426.2,116.8z M419.1,112.1h4.8c0.1-2.2-0.6-4-2.1-4
		C420.5,108.1,419.4,109.3,419.1,112.1"/>
	<path class="st0" d="M437.3,108v0.4H434v8.6c0,1.4,0.5,1.9,1.4,1.9s1.5-0.6,2-2.4l0.4,0.1c-0.3,1.7-1.1,3.1-2.9,3.1
		c-1,0-1.6-0.3-2.1-0.7c-0.7-0.7-0.9-1.5-0.9-3.1v-7.5h-2.1V108h2.1v-3.4c0.7,0,1.4-0.1,2-0.3v3.7C433.9,108,437.3,108,437.3,108z"
		/>
	<path class="st0" d="M463.1,104.1c-1.5,0.1-1.8,0.5-1.8,2.1v13.3h-0.5l-9.3-14.4v11.7c0,1.6,0.3,2.1,2,2.1v0.4
		c-0.5,0-1.5-0.1-2.3-0.1c-0.7,0-1.6,0-2.1,0.1V119c1.5-0.1,1.8-0.5,1.8-2.1V106c0-1.6-0.3-1.8-1.8-1.9v-0.4c0.5,0,1.3,0.1,2.1,0.1
		c0.7,0,1.2,0,1.7-0.1l7.8,12.1v-9.5c0-1.6-0.3-2.1-2-2.1v-0.4c0.5,0,1.5,0.1,2.3,0.1c0.7,0,1.6,0,2.1-0.1L463.1,104.1L463.1,104.1z
		"/>
	<path class="st0" d="M474.3,108.5c0.7,0.7,0.9,1.5,0.9,3.1v6.2c0,0.7,0.2,1,0.7,1c0.4,0,0.7-0.2,1-0.5l0.3,0.4
		c-0.6,0.5-1.1,0.8-2,0.8c-1.5,0-1.9-0.9-1.9-2c-0.9,1.6-2.4,2-3.4,2c-1.5,0-2.8-0.8-2.8-2.5c0-1.8,1.4-2.5,3.6-3.5
		c1.5-0.6,2.7-1,2.7-1.9v-1.4c0-1.9-0.9-2.2-2.1-2.2c-0.8,0-1.7,0.2-2.2,0.8c0.5,0.1,1,0.6,1,1.4s-0.5,1.2-1.3,1.2s-1.2-0.6-1.2-1.4
		c0-0.6,0.4-1.2,1.1-1.6c0.6-0.4,1.7-0.8,3.1-0.8C472.8,107.7,473.8,108,474.3,108.5 M473.2,112.6c-0.2,0.4-0.7,0.6-2.1,1.3
		c-1,0.5-2.2,1.1-2.2,2.8c0,1.3,0.8,2,1.8,2c0.9,0,1.8-0.5,2.5-1.7L473.2,112.6L473.2,112.6z"/>
	<path class="st0" d="M490.7,108v0.4c-0.5,0.1-1,0.4-1.4,1.6l-3.6,9.6l-0.8,1.9c-0.3,0.8-0.6,1.3-1,1.6c-0.5,0.4-1.2,0.6-1.7,0.6
		c-0.8,0-1.5-0.5-1.5-1.3c0-0.7,0.4-1.2,1.2-1.2c0.6,0,1.1,0.3,1.1,1.1c0,0.5-0.3,0.8-0.6,1h0.1c0.8,0,1.4-0.5,1.9-1.7l0.8-2l-4-9.7
		c-0.6-1.2-1.1-1.3-1.5-1.3V108c0.6,0.1,1.3,0.1,2.2,0.1c0.9,0,2-0.1,2.9-0.1v0.5c-0.8,0-1.6,0-1.6,0.8c0,0.3,0.1,0.6,0.3,1.1
		l2.7,6.6l2.5-6.4c0.2-0.4,0.2-0.7,0.2-1c0-0.7-0.5-1-1.7-1.1V108c0.8,0,1.2,0.1,1.9,0.1C489.7,108,490.2,108,490.7,108"/>
	<path class="st0" d="M501.6,108.5c0.7,0.7,0.9,1.5,0.9,3.1v6.2c0,0.7,0.2,1,0.7,1c0.4,0,0.7-0.2,1-0.5l0.2,0.4
		c-0.6,0.5-1.1,0.8-2,0.8c-1.6,0-1.9-0.9-1.9-2c-1,1.6-2.4,2-3.4,2c-1.5,0-2.8-0.8-2.8-2.5c0-1.8,1.4-2.5,3.6-3.5
		c1.5-0.6,2.7-1,2.7-1.9v-1.4c0-1.9-0.9-2.2-2.1-2.2c-0.8,0-1.7,0.2-2.2,0.8c0.5,0.1,1,0.6,1,1.4s-0.5,1.2-1.3,1.2s-1.2-0.6-1.2-1.4
		c0-0.6,0.4-1.2,1-1.6s1.7-0.8,3.1-0.8C500.2,107.7,501.1,108,501.6,108.5 M500.5,112.6c-0.2,0.4-0.7,0.6-2.1,1.3
		c-1,0.5-2.2,1.1-2.2,2.8c0,1.3,0.7,2,1.8,2c0.9,0,1.8-0.5,2.5-1.7L500.5,112.6L500.5,112.6z"/>
	<path class="st0" d="M516.7,109.4c0,0.8-0.5,1.4-1.3,1.4c-0.6,0-1.2-0.4-1.2-1.2c0-0.6,0.4-1,0.8-1.2c-0.1-0.2-0.3-0.2-0.5-0.2
		c-1.9,0-3.1,2.5-3.1,4.2v4.7c0,1.4,0.9,1.8,2.4,1.8v0.5c-0.7,0-2-0.1-3.4-0.1c-1,0-2.1,0.1-2.6,0.1V119c1.2,0,1.7-0.4,1.7-1.6v-7
		c0-1.3-0.4-2-1.7-2V108c0.5,0,0.9,0.1,1.4,0.1c0.9,0,1.7-0.1,2.3-0.3v2.8c0.5-1.3,1.7-2.8,3.2-2.8
		C515.9,107.7,516.7,108.5,516.7,109.4"/>
</g>
</svg>
